# File created by Blade
# Date/Time:  Mon Sep 22 15:50:36 2014
# Frame Rate: 120.000 fps
#------------------------------------------------------
:FULLY-SPECIFIED
:DEGREES
3477
root 2.842035 37.041803 3.989929 3.606774 6.533276 3.468982
RightUpLeg 8.136234 -12.042695 -5.777557
RightLeg -5.625296 -0.000000 0.000000
RightFoot -14.379444 -18.274424 18.080321
RightToeBase 13.199820 -0.000000 -0.000000
LeftUpLeg 4.037060 -5.425693 -0.922224
LeftLeg -3.306242 -0.000000 0.000000
LeftFoot -8.908264 12.012090 -17.186825
LeftToeBase 7.525318 -0.000000 -0.000000
Spine -0.089324 19.536642 0.216690
RightShoulder 3.512726 -30.281838 -14.336867
RightArm 13.297479 -22.963353 68.749140
RightForeArm 13.647045 -0.000000 40.616218
RightHand 3.308902 -0.000000 -1.537641
RightHandThumb1 -24.326973 -0.000000 -32.862282
LeftShoulder -30.121374 28.263506 16.723327
LeftArm 85.476361 -76.129398 -103.698937
LeftForeArm -54.617466 -0.000000 -5.935397
LeftHand -25.625470 -0.000000 22.154446
LeftHandThumb1 -26.253704 0.000000 33.147579
Head 20.632229 -2.586976 9.530442
3478
root 2.843368 37.045276 3.979895 3.538950 6.593288 3.459835
RightUpLeg 8.179939 -11.999525 -5.769784
RightLeg -5.581787 -0.000000 0.000000
RightFoot -14.391008 -18.366833 18.089861
RightToeBase 13.156320 -0.000000 -0.000000
LeftUpLeg 4.077726 -5.531683 -0.921483
LeftLeg -3.298355 -0.000000 0.000000
LeftFoot -8.891006 12.047304 -17.281982
LeftToeBase 7.432840 -0.000000 -0.000000
Spine 0.050652 19.316745 0.369910
RightShoulder 3.626870 -30.122253 -14.397295
RightArm 13.368462 -22.793944 68.668010
RightForeArm 13.623040 -0.000000 40.404191
RightHand 3.335223 -0.000000 -1.565568
RightHandThumb1 -24.326973 -0.000000 -32.862282
LeftShoulder -29.806398 28.199490 17.287412
LeftArm 90.133173 -76.065413 -109.938049
LeftForeArm -55.094247 -0.000000 -6.776755
LeftHand -27.797709 0.000000 29.572518
LeftHandThumb1 -26.253704 0.000000 33.147579
Head 20.713492 -2.312036 9.521580
3479
root 2.845667 37.050534 3.965799 3.458666 6.642399 3.441216
RightUpLeg 8.204680 -12.098192 -5.773775
RightLeg -5.504838 -0.000000 0.000000
RightFoot -14.377222 -18.304666 18.106785
RightToeBase 13.147555 -0.000000 -0.000000
LeftUpLeg 4.116049 -5.597153 -0.915971
LeftLeg -3.271261 -0.000000 0.000000
LeftFoot -8.883533 12.109463 -17.191871
LeftToeBase 7.537748 -0.000000 -0.000000
Spine 0.230222 19.043799 0.550493
RightShoulder 3.783054 -29.939359 -14.465902
RightArm 13.430215 -22.540967 68.598370
RightForeArm 13.614396 0.000000 40.185888
RightHand 3.334730 0.000000 -1.676282
RightHandThumb1 -24.326973 -0.000000 -32.862282
LeftShoulder -29.689267 28.109800 17.607699
LeftArm 95.488850 -75.847323 -117.044857
LeftForeArm -55.510643 -0.000000 -6.861718
LeftHand -29.336923 -0.000000 37.553823
LeftHandThumb1 -26.253704 0.000000 33.147579
Head 20.794175 -1.920229 9.533281
3480
root 2.849188 37.054776 3.951458 3.379249 6.685086 3.430046
RightUpLeg 8.245467 -12.099391 -5.779383
RightLeg -5.463145 -0.000000 0.000000
RightFoot -14.370595 -18.328828 18.135270
RightToeBase 13.173426 -0.000000 -0.000000
LeftUpLeg 4.164398 -5.680741 -0.920936
LeftLeg -3.265049 -0.000000 0.000000
LeftFoot -8.867837 12.162578 -17.217715
LeftToeBase 7.567253 -0.000000 -0.000000
Spine 0.419760 18.782584 0.743621
RightShoulder 3.935933 -29.769530 -14.540174
RightArm 13.458121 -22.251810 68.562897
RightForeArm 13.763846 0.000000 40.019916
RightHand 3.384693 -0.000000 -1.841629
RightHandThumb1 -24.326973 -0.000000 -32.862282
LeftShoulder -29.741431 28.036319 17.654420
LeftArm 101.098258 -75.382527 -124.402699
LeftForeArm -55.282180 -0.000000 -6.461191
LeftHand -31.151519 -0.000000 42.024507
LeftHandThumb1 -26.253704 0.000000 33.147579
Head 20.854560 -1.548871 9.507643
3481
root 2.858019 37.058530 3.937840 3.315524 6.691520 3.439901
RightUpLeg 8.266564 -12.052615 -5.809058
RightLeg -5.419128 -0.000000 0.000000
RightFoot -14.383199 -18.375462 18.172629
RightToeBase 13.167228 -0.000000 -0.000000
LeftUpLeg 4.318645 -6.051546 -0.961122
LeftLeg -3.483766 -0.000000 0.000000
LeftFoot -8.822921 12.509130 -17.322483
LeftToeBase 7.592032 -0.000000 -0.000000
Spine 0.605500 18.540897 0.911402
RightShoulder 4.060968 -29.591771 -14.609303
RightArm 13.468142 -21.925334 68.543380
RightForeArm 13.912624 0.000000 39.858455
RightHand 3.503431 -0.000000 -1.920173
RightHandThumb1 -24.326973 -0.000000 -32.862282
LeftShoulder -29.957218 27.895076 17.508581
LeftArm 105.447096 -74.766912 -130.452278
LeftForeArm -54.745349 0.000000 -5.691478
LeftHand -32.125909 -0.000000 45.551695
LeftHandThumb1 -26.253704 0.000000 33.147579
Head 20.876534 -1.179917 9.458899
3482
root 2.863667 37.059773 3.926302 3.265350 6.662514 3.446908
RightUpLeg 8.275977 -12.004762 -5.827710
RightLeg -5.388546 -0.000000 0.000000
RightFoot -14.386352 -18.422008 18.149419
RightToeBase 13.167220 -0.000000 -0.000000
LeftUpLeg 4.384837 -6.091398 -0.986237
LeftLeg -3.544404 -0.000000 0.000000
LeftFoot -8.800779 12.574604 -17.358627
LeftToeBase 7.628356 -0.000000 -0.000000
Spine 0.777025 18.375339 1.064339
RightShoulder 4.123508 -29.433358 -14.636019
RightArm 13.458311 -21.580480 68.551470
RightForeArm 14.042899 -0.000000 39.732235
RightHand 3.525679 -0.000000 -2.212923
RightHandThumb1 -24.326973 -0.000000 -32.862282
LeftShoulder -30.274778 27.857169 17.141087
LeftArm 108.253538 -74.080175 -134.709517
LeftForeArm -53.878931 -0.000000 -4.922742
LeftHand -32.558583 0.000000 47.163003
LeftHandThumb1 -26.253704 0.000000 33.147579
Head 20.855407 -0.832046 9.416461
3483
root 2.869966 37.060244 3.909413 3.241138 6.641350 3.451938
RightUpLeg 8.248107 -11.975961 -5.842785
RightLeg -5.338955 -0.000000 0.000000
RightFoot -14.392077 -18.441424 18.109173
RightToeBase 13.196176 -0.000000 -0.000000
LeftUpLeg 4.382099 -6.057834 -1.005843
LeftLeg -3.536055 -0.000000 0.000000
LeftFoot -8.779197 12.569982 -17.332482
LeftToeBase 7.618258 -0.000000 -0.000000
Spine 0.938271 18.193624 1.239637
RightShoulder 4.179107 -29.266115 -14.697681
RightArm 13.432437 -21.208254 68.602514
RightForeArm 14.245598 -0.000000 39.600056
RightHand 3.584843 -0.000000 -2.409491
RightHandThumb1 -24.326973 -0.000000 -32.862282
LeftShoulder -30.669321 27.914082 16.583615
LeftArm 108.865302 -73.500120 -136.486194
LeftForeArm -53.372416 0.000000 -4.418227
LeftHand -32.336362 -0.000000 45.780426
LeftHandThumb1 -26.253704 0.000000 33.147579
Head 20.820568 -0.487661 9.298529
